<?xml version="1.0" encoding="UTF-8" standalone="no"?>
<!-- Created with Inkscape (http://www.inkscape.org/) -->

<svg
   width="1080"
   height="1080"
   viewBox="0 0 285.74999 285.75"
   version="1.1"
   id="svg1"
   xml:space="preserve"
   sodipodi:docname="Logo_DAFIC_redondo.svg"
   inkscape:version="1.3 (0e150ed6c4, 2023-07-21)"
   inkscape:export-filename="Logo_DAFIC_redondo.png"
   inkscape:export-xdpi="96"
   inkscape:export-ydpi="96"
   xmlns:inkscape="http://www.inkscape.org/namespaces/inkscape"
   xmlns:sodipodi="http://sodipodi.sourceforge.net/DTD/sodipodi-0.dtd"
   xmlns="http://www.w3.org/2000/svg"
   xmlns:svg="http://www.w3.org/2000/svg"><sodipodi:namedview
     id="namedview1"
     pagecolor="#505050"
     bordercolor="#eeeeee"
     borderopacity="1"
     inkscape:showpageshadow="0"
     inkscape:pageopacity="0"
     inkscape:pagecheckerboard="0"
     inkscape:deskcolor="#505050"
     inkscape:document-units="mm"
     inkscape:zoom="0.35355339"
     inkscape:cx="233.34524"
     inkscape:cy="476.58997"
     inkscape:window-width="1920"
     inkscape:window-height="1001"
     inkscape:window-x="-9"
     inkscape:window-y="-9"
     inkscape:window-maximized="1"
     inkscape:current-layer="layer1" /><defs
     id="defs1" /><g
     inkscape:label="Capa 1"
     inkscape:groupmode="layer"
     id="layer1"><g
       id="g2"
       transform="matrix(1.3607143,0,0,1.3607143,0,-59.191069)"><circle
         style="fill:#326e76;fill-opacity:1;stroke:none;stroke-width:1.32292"
         id="path2"
         cx="105"
         cy="148.5"
         r="105" /><g
         id="g1"><path
           style="fill:#ffffff;stroke-width:0.764396"
           d="m 76.562035,214.92093 c -1.147811,-1.02575 -1.079664,-1.29266 2.798528,-10.96075 10.461188,-26.07909 16.064577,-43.38568 18.342295,-56.65189 1.519359,-8.84928 1.522768,-17.2758 0.0094,-23.28954 -2.299133,-9.13628 -7.948116,-14.77925 -16.250583,-16.23327 -2.184214,-0.38252 -7.030356,-0.38159 -9.574141,0.002 -3.776036,0.56918 -8.532293,1.99696 -12.843132,3.85539 l -2.47193,1.06566 0.833205,-1.22696 c 0.458264,-0.67482 1.717808,-2.32707 2.798986,-3.67167 9.99904,-12.435195 24.929938,-24.029132 34.581208,-26.852527 1.960532,-0.573537 4.468765,-0.692821 6.067389,-0.288547 6.63483,1.677872 12.1653,8.993082 14.84842,19.640194 2.04023,8.09596 2.3013,18.95897 0.7186,29.90037 -3.27224,22.62138 -14.23146,49.3152 -31.607162,76.98687 -2.827103,4.50231 -4.845366,7.51292 -5.27628,7.87055 -0.18555,0.15398 -0.776401,0.32217 -1.313002,0.37372 -0.867801,0.0834 -1.051484,0.026 -1.661823,-0.51946 z M 92.64651,203.80271 c 0.399883,-1.13339 1.436034,-3.1297 6.374109,-12.28069 10.575031,-19.5971 16.338151,-32.06015 20.247511,-43.78635 3.99396,-11.97991 5.76318,-21.59774 5.9978,-32.60514 0.1863,-8.7401 -0.70422,-16.959202 -2.66318,-24.58004 -0.15012,-0.583987 -0.25071,-1.061794 -0.22353,-1.061794 0.16137,0 2.55218,3.541698 3.95925,5.865147 4.88622,8.068427 9.78646,20.031557 14.67593,35.828897 1.44504,4.66876 2.5491,7.40635 4.52501,11.22009 2.62538,5.0673 6.41895,10.8038 13.08944,19.79346 l 1.65079,2.22471 -0.59976,0.16008 c -1.75133,0.46744 -4.82108,-0.93351 -7.41916,-3.3859 -2.9784,-2.81138 -5.74533,-6.58054 -11.36531,-15.48197 -4.35812,-6.9028 -8.67109,-13.08541 -9.2808,-13.30396 -0.18584,-0.0666 -0.47876,0.56929 -5.47598,11.88823 -10.33176,23.40193 -14.07412,30.9564 -20.94233,42.27501 -4.33217,7.13929 -11.955804,17.99443 -12.637597,17.99443 -0.100003,0 -0.06049,-0.34389 0.08781,-0.76421 z"
           id="path1" /></g></g></g></svg>
